<svg xmlns="http://www.w3.org/2000/svg" version="1.1" xmlns:xlink="http://www.w3.org/1999/xlink" xmlns:svgjs="http://svgjs.dev/svgjs" width="1440" height="560" preserveAspectRatio="none" viewBox="0 0 1440 560"><g mask="url(&quot;#SvgjsMask1006&quot;)" fill="none"><rect width="1440" height="560" x="0" y="0" fill="#0e2a47"></rect><path d="M0 40C2.86 18.56 0 5.34 18.67 0C70 -14.66 79.34 0 140 0C210 0 210 0 280 0C350 0 350 0 420 0C490 0 490 0 560 0C630 0 630 0 700 0C770 0 770 0 840 0C900.61 0 919.71 -24.03 961.22 0C989.71 16.49 964.02 81.05 980 81.05C998.25 81.05 993.78 20.78 1029.68 0C1063.78 -19.74 1074.84 0 1120 0C1190 0 1190 0 1260 0C1330 0 1330 0 1400 0C1470 0 1505 -35 1540 0C1575 35 1540 70 1540 140C1540 210 1540 210 1540 280C1540 350 1540 350 1540 420C1540 490 1575 525 1540 560C1505 595 1470 560 1400 560C1331 560 1330.36 561.29 1262 560C1260.36 559.97 1261.44 557.36 1260 557.36C1255.78 557.36 1255.51 559.91 1250.67 560C1185.51 561.23 1185.34 560 1120 560C1082.31 560 1079.98 569.03 1044.62 560C1009.98 551.16 1007.53 524.26 980 524.26C964.45 524.26 976.69 555.34 958.46 560C906.69 573.21 899.23 560 840 560C770 560 770 560 700 560C630 560 630 560 560 560C490 560 490 560 420 560C388.89 560 385.82 570.26 357.78 560C315.82 544.65 317.67 508.78 280 508.78C246.96 508.78 252.54 546.76 216.36 560C182.54 572.37 178.18 560 140 560C70 560 40.09 589.91 0 560C-29.91 537.67 -26.52 488.28 0 455.52C30.15 418.28 113.33 442.87 113.33 420C113.33 395.36 34.79 403.47 0 360.5C-21.88 333.47 0 320.25 0 280C0 210 0 210 0 140C0 90 -6.48 88.56 0 40" stroke="rgba(148, 152, 196, 1)" stroke-width="2"></path><path d="M280 87.5C255.2 87.5 238.88 106.74 227.5 140C205.94 202.99 197.74 219.69 214.12 280C223.99 316.35 252.84 333.33 280 333.33C299.11 333.33 300.42 308.75 306.67 280C321.42 212.09 331.03 205.15 322 140C317.69 108.9 302.45 87.5 280 87.5" stroke="rgba(148, 152, 196, 1)" stroke-width="2"></path><path d="M840 104.63C798.29 104.63 758.05 119.93 758.05 140C758.05 161.28 797.84 187.32 840 187.32C891.31 187.32 945 161.07 945 140C945 119.73 891.77 104.63 840 104.63" stroke="rgba(148, 152, 196, 1)" stroke-width="2"></path><path d="M560 253.95C548.59 253.95 545.26 265.93 545.26 280C545.26 310.06 545.08 342.22 560 342.22C579.12 342.22 613.33 305.6 613.33 280C613.33 261.46 582.63 253.95 560 253.95" stroke="rgba(148, 152, 196, 1)" stroke-width="2"></path><path d="M980 176.13C944.42 176.13 934 231.25 934 280C934 310.94 954.86 309.78 980 335.52C1023.23 379.78 1031.01 373.15 1070.74 420C1101.01 455.7 1097.66 500.61 1120 500.61C1141.02 500.61 1157.46 461.69 1157.46 420C1157.46 358.05 1141.5 355.18 1120 293.33C1117.17 285.18 1115.46 285.58 1108.8 280C1045.46 226.98 1031.82 176.13 980 176.13" stroke="rgba(148, 152, 196, 1)" stroke-width="2"></path><path d="M420 402.05C399.74 402.05 381.11 405.12 381.11 420C381.11 445.91 396 483.64 420 483.64C450.44 483.64 490 443.13 490 420C490 402.33 454.18 402.05 420 402.05" stroke="rgba(148, 152, 196, 1)" stroke-width="2"></path><path d="M840 395.44C827.73 395.44 817.42 408.53 817.42 420C817.42 430.02 828.02 438.42 840 438.42C854.86 438.42 871.11 430.25 871.11 420C871.11 408.76 854.58 395.44 840 395.44" stroke="rgba(148, 152, 196, 1)" stroke-width="2"></path><path d="M140 103.16C108.14 103.16 96.44 37.13 96.44 0C96.44 -14.45 118.22 0 140 0C191.58 0 243.16 -21.37 243.16 0C243.16 30.21 181.5 103.16 140 103.16" stroke="rgba(148, 152, 196, 1)" stroke-width="2"></path><path d="M409.5 140C397.7 65.21 300.98 42.14 304.14 0C306.23 -27.86 362.07 0 420 0C468 0 478.98 -19.39 516 0C548.98 17.27 538.23 73.33 560 73.33C581.62 73.33 570.15 17.09 602.78 0C640.15 -19.57 651.39 0 700 0C770 0 770 0 840 0C879.27 0 918.54 -14.6 918.54 0C918.54 19.29 885.55 45.68 840 67.79C776.28 98.71 767.94 81.8 700 106.06C666.83 117.91 669.75 124.82 637.78 140C599.75 158.07 588.12 144.15 560 172.56C518.83 214.15 536.13 231.31 499.21 280C466.13 323.62 458.64 357.18 420 357.18C383.2 357.18 350.47 324.31 348.33 280C345.22 215.72 419.79 205.21 409.5 140" stroke="rgba(148, 152, 196, 1)" stroke-width="2"></path><path d="M1065 140C1065 96.92 1094.81 92.96 1120 43.75C1130.64 22.96 1117.41 6.02 1136.67 0C1187.41 -15.86 1198.34 0 1260 0C1312.86 0 1365.71 -22.88 1365.71 0C1365.71 33.43 1318.39 64.16 1260 112.61C1234.03 134.16 1197 123.73 1197 140C1197 157.75 1226.24 164.72 1260 180.65C1327.74 212.62 1342.78 247.38 1400 235.79C1443.12 227.06 1429.14 187.1 1460.67 140C1499.14 82.54 1518.2 26.67 1540 26.67C1557.86 26.67 1540 83.34 1540 140C1540 210 1540 210 1540 280C1540 350 1540 350 1540 420C1540 477.27 1548.34 480.33 1540 534.55C1537.57 550.33 1533.83 557.21 1518.46 560C1463.83 569.93 1459.23 560 1400 560C1356 560 1347.37 577.35 1312 560C1277.37 543.01 1285.88 525.75 1260 491.32C1233.26 455.75 1220.01 460.92 1206.76 420C1185.79 355.26 1215.1 343.68 1191.56 280C1171.72 226.32 1159.54 229.03 1120 185.29C1096.26 159.03 1065 167.69 1065 140" stroke="rgba(148, 152, 196, 1)" stroke-width="2"></path><path d="M749.41 280C791.77 253.84 798.34 236.62 840 236.62C865.63 236.62 884 257.11 884 280C884 305.82 862.99 307.88 840 334.04C801.48 377.88 760.97 379.85 760.97 420C760.97 455.07 802.48 450.05 840 484.47C878.79 520.05 913.59 537.76 913.59 560C913.59 575.52 876.8 560 840 560C770 560 770 560 700 560C685.26 560 677.82 571.33 670.53 560C632.82 501.33 602.11 483.44 610 420C616.84 364.98 653.39 369.88 700 323.08C723.1 299.88 721.77 297.07 749.41 280" stroke="rgba(148, 152, 196, 1)" stroke-width="2"></path><path d="M273.64 420C273.64 418.32 277.01 416.67 280 416.67C282.13 416.67 283.89 418.32 283.89 420C283.89 421.69 282.14 423.41 280 423.41C277.01 423.41 273.64 421.69 273.64 420" stroke="rgba(148, 152, 196, 1)" stroke-width="2"></path><path d="M948.89 420C948.89 407.12 964.99 395.86 980 395.86C993.51 395.86 1005.93 407.25 1005.93 420C1005.93 434.21 993.64 449.79 980 449.79C965.12 449.79 948.89 434.09 948.89 420" stroke="rgba(148, 152, 196, 1)" stroke-width="2"></path><path d="M1400 356.36C1390.16 356.36 1378.13 391.93 1378.13 420C1378.13 430.9 1389.49 434.29 1400 434.29C1408.96 434.29 1417.07 429.84 1417.07 420C1417.07 390.88 1409.63 356.36 1400 356.36" stroke="rgba(148, 152, 196, 1)" stroke-width="2"></path><path d="M0 507.76C38.21 507.76 109.37 546.27 109.37 560C109.37 572.39 37.01 577.68 0 560C-17.68 551.56 -16.47 507.76 0 507.76" stroke="rgba(148, 152, 196, 1)" stroke-width="2"></path><path d="M840 30.95C773.91 30.95 700 7.83 700 0C700 -7.65 770 0 840 0C857.92 0 875.85 -6.67 875.85 0C875.85 8.81 861.83 30.95 840 30.95" stroke="rgba(148, 152, 196, 1)" stroke-width="2"></path><path d="M1260 36.52C1240.7 36.52 1220 10.5 1220 0C1220 -7.76 1240 0 1260 0C1277.14 0 1294.29 -7.42 1294.29 0C1294.29 10.84 1277.85 36.52 1260 36.52" stroke="rgba(148, 152, 196, 1)" stroke-width="2"></path><path d="M390 280C390 250.8 404.37 217 420 217C435.95 217 453.16 251.12 453.16 280C453.16 298.78 436.18 312.31 420 312.31C404.6 312.31 390 298.45 390 280" stroke="rgba(148, 152, 196, 1)" stroke-width="2"></path><path d="M1515.65 280C1520.77 254.58 1533.55 233.33 1540 233.33C1545.72 233.33 1540 256.66 1540 280C1540 350 1540 350 1540 420C1540 437.5 1547.61 455 1540 455C1528.83 455 1505.7 443.4 1502.44 420C1493.52 355.9 1501.99 347.91 1515.65 280" stroke="rgba(148, 152, 196, 1)" stroke-width="2"></path><path d="M693.33 420C693.33 416 697 412.82 700 412.82C702.6 412.82 704.52 416.18 704.52 420C704.52 425.85 702.7 432.17 700 432.17C697.11 432.17 693.33 425.67 693.33 420" stroke="rgba(148, 152, 196, 1)" stroke-width="2"></path><path d="M1256.06 420C1256.06 392.58 1256.84 364 1260 364C1263.19 364 1268.75 394.04 1268.75 420C1268.75 424.68 1263.86 425.28 1260 425.28C1257.51 425.28 1256.06 423.22 1256.06 420" stroke="rgba(148, 152, 196, 1)" stroke-width="2"></path><path d="M779.46 560C779.46 552.24 812.3 530.53 840 530.53C856.93 530.53 868.72 551.32 868.72 560C868.72 566.06 854.36 560 840 560C809.73 560 779.46 566.98 779.46 560" stroke="rgba(148, 152, 196, 1)" stroke-width="2"></path><path d="M1362 560C1362 542.75 1379.03 505.71 1400 505.71C1423.6 505.71 1451.15 543.9 1451.15 560C1451.15 571.04 1425.57 560 1400 560C1381 560 1362 569.89 1362 560" stroke="rgba(148, 152, 196, 1)" stroke-width="2"></path></g><defs><mask id="SvgjsMask1006"><rect width="1440" height="560" fill="#ffffff"></rect></mask></defs></svg>